<svg width="45" height="45" viewBox="0 0 45 45" fill="none" xmlns="http://www.w3.org/2000/svg">
  <path d="M1.26258 8.73763C0.579217 8.05402 0.579139 6.94616 1.26235 6.26246C1.26241 6.2624 1.26247 6.26233 1.26253 6.26227C1.26256 6.26225 1.26258 6.26223 1.2626 6.2622C1.94615 5.57937 3.05419 5.57939 3.73785 6.2625L18.7352 21.2645L18.7353 21.2646C19.419 21.9483 19.419 23.0515 18.7353 23.7352L18.7353 23.7352L3.73764 38.7352C3.05395 39.4189 1.94604 39.4188 1.26256 38.7352C0.579134 38.0515 0.579147 36.9482 1.2626 36.2645L1.26263 36.2645L14.4914 23.0301L15.0214 22.4999L14.4913 21.9696L1.2626 8.73765C1.2626 8.73764 1.26259 8.73763 1.26258 8.73763ZM42.5 35.7499C43.4686 35.7499 44.25 36.5313 44.25 37.4999C44.25 38.4685 43.4686 39.2499 42.5 39.2499H20C19.0314 39.2499 18.25 38.4685 18.25 37.4999C18.25 36.5313 19.0314 35.7499 20 35.7499H42.5Z" stroke="#32F8BC" stroke-width="1.5"/>
</svg>